#!OML:ASF H:\Terrain\Patient Classification 1\Walking\liu\liu.ASF
:FULLY-SPECIFIED
:DEGREES
340
root 9.401290 16.632700 12.018100 5.709500 11.068600 -0.950236
lowerback -3.184100 -2.293655 -1.119355
upperback -0.723890 -3.023750 1.618285
thorax 1.321870 -1.522870 2.027815
lowerneck -10.148900 -2.625705 -6.412400
upperneck 10.712250 -3.422685 6.850300
head 5.631900 -1.281015 3.071910
rclavicle -0.000000 -0.000000
rhumerus -23.111950 2.338090 -40.601299
rradius 15.176100
rwrist -7.607800
rhand -13.430450 -14.672250
rfingers 3.562510
rthumb -0.142869 -29.662001
lclavicle -0.000000 -0.000000
lhumerus -14.385250 -11.351650 50.686001
lradius 12.987150
lwrist 2.009105
lhand -5.694800 -12.066500
lfingers 3.562510
lthumb 7.322600 2.664925
rfemur -17.307850 0.475994 11.725250
rtibia 20.524250
rfoot -5.817300 1.006520
rtoes -6.493250
lfemur 4.817485 3.140965 -5.827000
ltibia 19.274200
lfoot 5.892050 0.318709
ltoes -6.937550
341
root 9.362700 16.662201 12.162900 5.715260 10.753400 -1.442570
lowerback -3.069390 -2.182820 -1.061085
upperback -0.790030 -2.882080 1.715610
thorax 1.181170 -1.449625 2.122530
lowerneck -9.909300 -2.690845 -6.578500
upperneck 10.508550 -3.522300 7.045650
head 5.541700 -1.326810 3.151495
rclavicle -0.000000 -0.000000
rhumerus -23.080450 2.422320 -40.628551
rradius 15.438900
rwrist -8.062600
rhand -13.932500 -13.906950
rfingers 3.562510
rthumb -0.627750 -28.894951
lclavicle -0.000000 -0.000000
lhumerus -14.510300 -10.773550 50.560001
lradius 12.468050
lwrist 1.706180
lhand -5.494250 -11.705150
lfingers 3.562510
lthumb 7.515800 3.012035
rfemur -16.954399 1.095740 12.025000
rtibia 20.344700
rfoot -6.157800 0.691835
rtoes -6.277150
lfemur 3.896890 3.312495 -5.522100
ltibia 20.711750
lfoot 6.171700 0.715865
ltoes -6.659950
342
root 9.345100 16.700300 12.306600 5.901440 10.458600 -1.412250
lowerback -3.105975 -2.072165 -1.119410
upperback -0.764030 -2.730550 1.692705
thorax 1.217530 -1.375085 2.142320
lowerneck -9.928750 -2.755980 -6.663300
upperneck 10.355200 -3.604805 7.180500
head 5.512650 -1.355685 3.198430
rclavicle 0.000000 -0.000000
rhumerus -22.870050 2.410780 -40.648201
rradius 15.650150
rwrist -8.355750
rhand -14.398750 -12.216450
rfingers 3.562510
rthumb -1.078085 -27.200850
lclavicle 0.000000 -0.000000
lhumerus -14.511150 -10.397600 50.365501
lradius 12.053950
lwrist 1.514825
lhand -5.214100 -11.226650
lfingers 3.562510
lthumb 7.785650 3.469940
rfemur -16.711599 1.295905 12.098200
rtibia 20.180300
rfoot -6.297500 0.659750
rtoes -6.247400
lfemur 3.009400 3.485890 -5.584450
ltibia 22.027100
lfoot 6.127500 1.330570
ltoes -5.910700
343
root 9.338850 16.742001 12.449600 6.052830 10.659800 -1.132990
lowerback -3.169335 -2.055455 -1.204770
upperback -0.703640 -2.701125 1.615845
thorax 1.312865 -1.362825 2.106075
lowerneck -10.103900 -2.811560 -6.678050
upperneck 10.386750 -3.660440 7.179200
head 5.568200 -1.375670 3.192630
rclavicle 0.000000 0.000000
rhumerus -22.616249 2.439890 -40.688850
rradius 15.839200
rwrist -8.649650
rhand -14.278150 -11.223450
rfingers 3.562510
rthumb -0.961600 -26.209000
lclavicle 0.000000 0.000000
lhumerus -14.517700 -10.226850 50.198002
lradius 11.649500
lwrist 1.541675
lhand -5.182000 -10.944900
lfingers 3.562510
lthumb 7.816550 3.749270
rfemur -16.366301 1.084935 12.044500
rtibia 19.924049
rfoot -6.425400 0.782240
rtoes -6.384050
lfemur 2.096530 3.413730 -5.824400
ltibia 23.347050
lfoot 5.473650 2.211450
ltoes -6.194650
